# xmcd
#
# Track frame offsets:
#	150
#	22649
#	45152
#	67699
#	90152
#	112657
#	135151
#	157652
#	180151
#	202650
#
# Disc length: 3070 seconds
#
# Revision: 0
# Processed by: cddbd v1.5.2PL0 Copyright (c) Steve Scherf et al.
# Submitted via: audiograbber 1.83.01
#
DISCID=490bfc0a
DTITLE=Klaus Schulze and Pete Namlook - The Dark Side Of The Moog [Boxset 1 - Vol
DTITLE=1-4 2016] [CD 1) - Vol. 1
DYEAR=1994
DGENRE=Electronic
TTITLE0=Wish You Were There Part I
TTITLE1=Wish You Were There Part II
TTITLE2=Wish You Were There Part III
TTITLE3=Wish You Were There Part IV
TTITLE4=Wish You Were There Part V
TTITLE5=Wish You Were There Part VI
TTITLE6=Wish You Were There Part VII
TTITLE7=Wish You Were There Part VIII
TTITLE8=Wish You Were There Part IX
TTITLE9=Wish You Were There Part X
EXTD=
EXTT0=
EXTT1=
EXTT2=
EXTT3=
EXTT4=
EXTT5=
EXTT6=
EXTT7=
EXTT8=
EXTT9=
PLAYORDER=
